<svg xmlns="http://www.w3.org/2000/svg" xmlns:xlink="http://www.w3.org/1999/xlink" xmlns:inkscape="http://www.inkscape.org/namespaces/inkscape" version="1.1" width="180" height="180" viewBox="575 459 180 180" preserveAspectRatio="xMidYMid meet">
<defs>
<clipPath id="clip_1">
<path transform="matrix(1,0,0,-1,0,1080)" d="M0 1080H1920V0H0Z"></path>
</clipPath>
</defs>
<g xmlns:inkscape="http://www.inkscape.org/namespaces/inkscape" inkscape:groupmode="layer" inkscape:label="图层 1">
<g clip-path="url(#clip_1)">
<path transform="matrix(1,0,0,-1,602.1465,587.73147)" d="M0 0C1.675 1.559 3.609 2.348 5.815 2.348 7.975 2.348 9.883 1.559 11.551 0 13.172-1.673 13.977-3.604 13.977-5.812 13.977-7.974 13.172-9.878 11.551-11.54 9.883-13.161 7.975-13.959 5.815-13.959 3.609-13.959 1.675-13.161 0-11.54-1.556-9.878-2.337-7.974-2.337-5.812-2.337-3.604-1.556-1.673 0 0M15.427 91.323C17.205 93.156 18.389 95.224 18.977 97.534 19.568 99.795 19.568 102.09 18.977 104.406 18.389 106.722 17.205 108.792 15.427 110.618 13.601 112.393 11.519 113.58 9.203 114.168 6.953 114.767 4.653 114.767 2.349 114.168 .033 113.58-2.017 112.393-3.788 110.618-5.567 108.792-6.751 106.722-7.349 104.406-7.931 102.143-7.931 99.853-7.349 97.534-6.751 95.224-5.567 93.156-3.788 91.323-2.017 89.549 .033 88.359 2.349 87.771 4.653 87.234 6.953 87.234 9.203 87.771 11.519 88.359 13.601 89.549 15.427 91.323M59.187-33.346C60.697-33.288 61.958-32.759 62.98-31.723 64.008-30.708 64.54-29.447 64.604-27.942 64.54-26.37 64.008-25.088 62.98-24.061 61.958-23.034 60.697-22.507 59.187-22.442 57.626-22.507 56.332-23.034 55.311-24.061 54.288-25.088 53.756-26.37 53.695-27.942 53.756-29.447 54.288-30.708 55.311-31.723 56.332-32.759 57.626-33.288 59.187-33.346M-5.398 47.553C-5.513 50.684-6.593 53.269-8.626 55.314-10.682 57.358-13.23 58.409-16.302 58.457-19.373 58.409-21.934 57.358-23.973 55.314-26.076 53.269-27.152 50.684-27.201 47.553-27.152 44.488-26.076 41.929-23.973 39.882-21.934 37.847-19.373 36.804-16.302 36.733-13.23 36.804-10.682 37.847-8.626 39.882-6.593 41.929-5.513 44.488-5.398 47.553M28.021-28.577C29.8-29.281 31.523-29.281 33.191-28.577 34.86-27.879 36.094-26.644 36.904-24.865 37.546-23.034 37.529-21.288 36.817-19.619 36.121-17.955 34.893-16.747 33.104-15.979 31.338-15.279 29.615-15.279 27.94-15.979 26.271-16.688 25.059-17.923 24.31-19.699 23.608-21.474 23.608-23.201 24.31-24.865 25.01-26.538 26.244-27.773 28.021-28.577M.657 71.542C1.511 73.639 1.783 75.763 1.457 77.922 1.13 80.021 .326 81.938-.963 83.66-2.256 85.32-3.951 86.615-6.056 87.52-8.153 88.396-10.279 88.656-12.432 88.344-14.535 88.006-16.438 87.208-18.155 85.907-19.83 84.614-21.124 82.929-22.031 80.831-22.901 78.728-23.162 76.596-22.842 74.455-22.521 72.351-21.716 70.437-20.417 68.713-19.129 67.044-17.437 65.751-15.339 64.833-13.23 64.022-11.11 63.763-8.959 64.022-6.855 64.359-4.951 65.165-3.224 66.454-1.556 67.747-.262 69.441 .657 71.542M89.394-26.007C90.465-25.568 91.191-24.839 91.562-23.828 92.003-22.842 92.003-21.819 91.562-20.744 91.139-19.68 90.415-18.917 89.394-18.494 88.419-18.061 87.371-18.061 86.24-18.494 85.219-18.967 84.479-19.699 84.06-20.662 83.632-21.685 83.632-22.739 84.06-23.828 84.544-24.894 85.268-25.614 86.24-26.007 87.263-26.437 88.306-26.437 89.394-26.007M-1.854 22.53C-2.93 25.004-4.653 26.73-7.018 27.688-9.334 28.723-11.752 28.75-14.279 27.773-16.765 26.702-18.481 24.97-19.46 22.611-20.417 20.297-20.417 17.861-19.46 15.339-18.379 12.859-16.677 11.144-14.367 10.187-11.997 9.208-9.546 9.18-7.018 10.092-4.545 11.169-2.821 12.898-1.854 15.257-.892 17.578-.892 19.996-1.854 22.53M2.104 47.553C2.163 46 2.69 44.685 3.719 43.604 4.8 42.578 6.115 42.049 7.669 41.985 9.235 42.049 10.562 42.578 11.628 43.604 12.659 44.685 13.192 46 13.248 47.553 13.192 49.128 12.659 50.403 11.628 51.432 10.562 52.51 9.235 53.073 7.669 53.129 6.115 53.073 4.8 52.548 3.719 51.519 2.69 50.434 2.163 49.128 2.104 47.553M59.028 89.625C61.664 89.69 63.85 90.597 65.567 92.369 67.339 94.091 68.258 96.283 68.317 98.912 68.258 101.559 67.339 103.736 65.567 105.456 63.85 107.177 61.664 108.093 59.028 108.2 56.396 108.093 54.207 107.177 52.488 105.456 50.767 103.736 49.873 101.559 49.825 98.912 49.873 96.283 50.767 94.091 52.488 92.369 54.207 90.647 56.396 89.74 59.028 89.625M20.102 8.642C20.863 7.893 21.722 7.512 22.699 7.512 23.711 7.512 24.604 7.893 25.354 8.642 26.054 9.397 26.414 10.26 26.414 11.23 26.414 12.197 26.054 13.051 25.354 13.811 24.604 14.559 23.711 14.942 22.699 14.942 21.722 14.942 20.863 14.559 20.102 13.811 19.411 13.051 19.058 12.197 19.058 11.23 19.058 10.26 19.411 9.397 20.102 8.642M27.94 78.65C29.387 80.151 30.125 81.901 30.125 83.896 30.125 85.826 29.387 87.556 27.94 89.061 26.434 90.522 24.689 91.246 22.699 91.246 20.755 91.246 19.03 90.522 17.521 89.061 16.068 87.556 15.346 85.826 15.346 83.896 15.346 81.901 16.068 80.151 17.521 78.65 19.03 77.196 20.781 76.475 22.775 76.475 24.718 76.475 26.434 77.196 27.94 78.65M7.437 25.921C7.975 24.734 8.807 23.905 9.942 23.418 11.073 22.934 12.258 22.934 13.491 23.418 14.677 23.958 15.504 24.793 15.997 25.921 16.421 27.05 16.4 28.238 15.911 29.474 15.367 30.661 14.535 31.491 13.41 31.974 12.279 32.467 11.096 32.467 9.855 31.974 8.676 31.435 7.838 30.598 7.35 29.474 6.925 28.281 6.953 27.113 7.437 25.921M42.394 87.208C44.547 88.181 46.053 89.69 46.917 91.734 47.727 93.832 47.695 95.959 46.83 98.104 45.874 100.264 44.362 101.767 42.313 102.631 40.269 103.493 38.165 103.493 36.013 102.631 33.865 101.659 32.354 100.151 31.49 98.104 30.636 96.006 30.636 93.876 31.49 91.734 32.469 89.58 33.979 88.071 36.013 87.208 38.057 86.339 40.193 86.339 42.394 87.208M38.198-2.425C38.894-2.691 39.595-2.691 40.29-2.425 40.992-2.146 41.481-1.638 41.748-.888 42.068-.184 42.095 .511 41.834 1.213 41.497 1.917 40.992 2.424 40.29 2.744 39.546 3.016 38.845 3.016 38.198 2.744 37.502 2.487 36.985 1.955 36.659 1.213 36.388 .511 36.388-.184 36.659-.888 36.931-1.588 37.442-2.099 38.198-2.425M17.612 64.833C18.313 66.563 18.335 68.225 17.683 69.851 16.987 71.398 15.809 72.563 14.129 73.318 12.416 74.015 10.773 74.015 9.203 73.318 7.588 72.668 6.414 71.511 5.653 69.851 5.012 68.12 5.012 66.494 5.653 64.915 6.305 63.301 7.457 62.124 9.138 61.372 10.855 60.724 12.519 60.724 14.129 61.372 15.693 62.008 16.856 63.174 17.612 64.833M32.62 73.959C31.913 73.212 31.577 72.351 31.577 71.376 31.577 70.411 31.913 69.545 32.62 68.798 33.376 68.094 34.241 67.747 35.208 67.747 36.182 67.747 37.035 68.094 37.796 68.798 38.497 69.545 38.845 70.411 38.845 71.376 38.845 72.351 38.497 73.212 37.796 73.959 37.035 74.667 36.182 75.009 35.208 75.009 34.241 75.009 33.376 74.667 32.62 73.959M78.489 67.103C79.722 65.923 81.151 65.324 82.767 65.324 84.382 65.324 85.811 65.923 87.05 67.103 88.229 68.331 88.822 69.766 88.822 71.376 88.822 72.989 88.229 74.417 87.05 75.662 85.811 76.844 84.382 77.431 82.767 77.431 81.151 77.431 79.722 76.844 78.489 75.662 77.304 74.417 76.711 72.989 76.711 71.376 76.711 69.766 77.304 68.331 78.489 67.103M22.934 47.553C22.934 46.909 23.185 46.348 23.662 45.858 24.093 45.432 24.652 45.192 25.354 45.142 26.054 45.192 26.619 45.432 27.049 45.858 27.483 46.348 27.729 46.909 27.771 47.553 27.729 48.253 27.483 48.849 27.049 49.334 26.564 49.765 26.005 49.981 25.354 49.981 24.652 49.981 24.093 49.765 23.662 49.334 23.185 48.849 22.934 48.253 22.934 47.553M58.947 76.383C60.344 76.438 61.507 76.899 62.415 77.754 63.338 78.674 63.79 79.837 63.79 81.229 63.79 82.576 63.338 83.701 62.415 84.614 61.507 85.536 60.344 86.011 58.947 86.082 57.604 86.011 56.468 85.536 55.56 84.614 54.635 83.701 54.158 82.576 54.104 81.229 54.158 79.837 54.635 78.674 55.56 77.754 56.468 76.844 57.604 76.383 58.947 76.383M25.037 61.452C24.718 60.643 24.718 59.885 25.037 59.185 25.354 58.43 25.924 57.871 26.729 57.5 27.538 57.221 28.288 57.221 28.995 57.5 29.751 57.82 30.305 58.377 30.69 59.185 30.963 59.993 30.937 60.772 30.599 61.531 30.338 62.234 29.8 62.771 28.995 63.14 28.181 63.465 27.407 63.465 26.651 63.14 25.896 62.813 25.354 62.25 25.037 61.452M69.688 73.639C71.08 73.089 72.46 73.089 73.797 73.639 75.15 74.226 76.151 75.227 76.788 76.628 77.325 78.083 77.304 79.485 76.711 80.831 76.173 82.167 75.205 83.141 73.797 83.734 72.357 84.27 70.949 84.27 69.606 83.734 68.258 83.192 67.264 82.201 66.616 80.745 66.079 79.296 66.1 77.922 66.698 76.628 67.236 75.289 68.226 74.286 69.688 73.639M26.162 34.157C26.381 33.681 26.7 33.352 27.136 33.193 27.565 32.979 28.021 32.939 28.511 33.108 28.995 33.324 29.344 33.681 29.561 34.157 29.718 34.587 29.718 35.037 29.561 35.536 29.344 36.009 29.022 36.335 28.588 36.507 28.108 36.713 27.619 36.713 27.136 36.507 26.7 36.277 26.381 35.958 26.162 35.536 26.005 35.102 26.005 34.637 26.162 34.157M47.804 74.768C48.935 75.253 49.716 76.015 50.146 77.031 50.57 78.112 50.57 79.215 50.146 80.348 49.662 81.417 48.886 82.167 47.804 82.598 46.782 83.031 45.71 83.031 44.573 82.598 43.498 82.125 42.754 81.36 42.313 80.348 41.889 79.318 41.889 78.249 42.313 77.106 42.797 75.977 43.553 75.199 44.573 74.768 45.596 74.346 46.678 74.346 47.804 74.768" fill="#00aedb" fill-rule="evenodd"></path>
<path transform="matrix(1,0,0,-1,720.1162,492.37208)" d="M0 0C-1.675-1.562-3.578-2.346-5.73-2.346-7.942-2.346-9.883-1.562-11.541 0-13.155 1.665-13.965 3.606-13.965 5.808-13.965 7.968-13.155 9.883-11.541 11.544-9.883 13.162-7.942 13.969-5.73 13.969-3.578 13.969-1.675 13.162 0 11.544 1.614 9.883 2.424 7.968 2.424 5.808 2.424 3.606 1.614 1.665 0 0M-15.422-91.324C-17.199-93.154-18.379-95.225-18.977-97.54-19.51-99.855-19.482-102.145-18.891-104.406-18.303-106.715-17.146-108.783-15.422-110.612-13.596-112.401-11.519-113.581-9.203-114.168-6.942-114.763-4.652-114.763-2.343-114.168-.028-113.581 2.043-112.401 3.87-110.612 5.652-108.783 6.844-106.715 7.43-104.406 8.018-102.145 8.018-99.855 7.43-97.54 6.844-95.225 5.652-93.154 3.87-91.324 2.043-89.539-.028-88.365-2.343-87.766-4.604-87.229-6.888-87.255-9.203-87.848-11.519-88.438-13.596-89.604-15.422-91.324M-59.181 33.345C-60.686 33.295-61.953 32.755-62.98 31.736-64.003 30.708-64.536 29.455-64.596 27.946-64.536 26.376-64.003 25.083-62.98 24.061-61.953 23.044-60.686 22.508-59.181 22.447-57.626 22.508-56.327 23.044-55.305 24.061-54.288 25.083-53.75 26.376-53.69 27.946-53.75 29.455-54.288 30.708-55.305 31.736-56.327 32.755-57.626 33.295-59.181 33.345M5.49-47.546C5.543-50.678 6.587-53.265 8.638-55.309 10.687-57.35 13.242-58.402 16.318-58.45 19.437-58.402 22.015-57.35 24.063-55.309 26.107-53.265 27.151-50.678 27.211-47.546 27.151-44.494 26.107-41.926 24.063-39.881 22.015-37.846 19.437-36.794 16.318-36.734 13.242-36.794 10.687-37.846 8.638-39.881 6.587-41.926 5.543-44.494 5.49-47.546M-27.935 28.586C-29.768 29.29-31.519 29.29-33.181 28.586-34.851 27.884-36.063 26.649-36.818 24.86-37.519 23.044-37.519 21.291-36.818 19.618-36.116 17.961-34.882 16.744-33.104 15.979-31.327 15.289-29.604 15.289-27.935 15.979-26.268 16.688-25.032 17.924-24.222 19.703-23.58 21.489-23.608 23.206-24.305 24.86-25.005 26.543-26.218 27.772-27.935 28.586M-.642-71.54C-1.446-73.638-1.724-75.759-1.446-77.916-1.131-80.021-.315-81.929 .973-83.65 2.255-85.369 3.958-86.663 6.061-87.519 8.158-88.391 10.284-88.655 12.431-88.321 14.535-88.006 16.444-87.201 18.16-85.902 19.895-84.613 21.178-82.923 22.048-80.825 22.907-78.727 23.178-76.593 22.848-74.444 22.52-72.345 21.727-70.431 20.422-68.706 19.134-67.038 17.443-65.756 15.34-64.832 13.242-64.033 11.11-63.762 8.964-64.033 6.859-64.36 4.979-65.153 3.31-66.462 1.593-67.745 .271-69.436-.642-71.54M-89.382 25.998C-90.404 25.569-91.133 24.846-91.556 23.818-91.992 22.844-91.992 21.8-91.556 20.671-91.073 19.649-90.351 18.922-89.382 18.497-88.354 18.064-87.306 18.064-86.234 18.497-85.202 18.976-84.485 19.703-84.056 20.671-83.626 21.698-83.626 22.741-84.056 23.818-84.485 24.892-85.202 25.622-86.234 25.998-87.257 26.437-88.306 26.437-89.382 25.998M1.853-22.528C2.934-25.009 4.658-26.729 7.022-27.7 9.344-28.717 11.774-28.744 14.301-27.773 16.765-26.693 18.493-24.979 19.46-22.612 20.422-20.285 20.46-17.861 19.542-15.338 18.405-12.87 16.687-11.143 14.372-10.175 12.051-9.207 9.637-9.169 7.11-10.093 4.631-11.218 2.908-12.941 1.935-15.255 .918-17.622 .886-20.052 1.853-22.528M-2.099-47.546C-2.153-45.997-2.69-44.676-3.714-43.6-4.789-42.577-6.11-42.04-7.664-41.985-9.225-42.04-10.558-42.577-11.627-43.6-12.655-44.676-13.188-45.997-13.237-47.546-13.188-49.123-12.655-50.409-11.627-51.438-10.558-52.504-9.225-53.069-7.664-53.124-6.11-53.069-4.789-52.531-3.714-51.521-2.69-50.438-2.153-49.123-2.099-47.546M-59.022-89.625C-61.665-89.686-63.845-90.593-65.563-92.369-67.285-94.087-68.205-96.272-68.308-98.905-68.254-101.547-67.334-103.725-65.563-105.46-63.845-107.178-61.665-108.086-59.022-108.201-56.387-108.086-54.208-107.178-52.483-105.46-50.761-103.725-49.842-101.547-49.739-98.905-49.842-96.272-50.761-94.087-52.483-92.369-54.208-90.646-56.387-89.733-59.022-89.625M-20.103-8.646C-20.863-7.886-21.717-7.51-22.689-7.51-23.712-7.51-24.598-7.886-25.349-8.646-26.05-9.391-26.408-10.25-26.408-11.218-26.408-12.192-26.05-13.058-25.349-13.8-24.598-14.554-23.712-14.93-22.689-14.93-21.717-14.93-20.863-14.554-20.103-13.8-19.352-13.058-18.977-12.192-18.977-11.218-18.977-10.25-19.352-9.391-20.103-8.646M-27.935-78.639C-29.387-80.152-30.115-81.9-30.115-83.891-30.115-85.831-29.387-87.576-27.935-89.145-26.43-90.542-24.68-91.239-22.689-91.239-20.749-91.239-18.998-90.542-17.449-89.145-15.987-87.576-15.285-85.831-15.346-83.891-15.346-81.9-16.042-80.152-17.449-78.639-18.998-77.194-20.749-76.466-22.689-76.466-24.68-76.466-26.43-77.194-27.935-78.639M-7.425-25.917C-7.964-24.735-8.795-23.9-9.932-23.417-11.067-22.928-12.246-22.928-13.486-23.417-14.672-23.957-15.477-24.787-15.905-25.917-16.39-27.042-16.39-28.233-15.905-29.472-15.368-30.658-14.536-31.494-13.405-31.973-12.274-32.456-11.09-32.456-9.854-31.973-8.665-31.44-7.833-30.596-7.35-29.472-6.921-28.344-6.942-27.157-7.425-25.917M-42.39-87.201C-44.542-88.168-46.048-89.686-46.912-91.729-47.716-93.821-47.689-95.957-46.824-98.101-45.862-100.262-44.353-101.761-42.308-102.628-40.265-103.489-38.139-103.489-35.927-102.628-33.784-101.653-32.301-100.147-31.484-98.101-30.626-96.059-30.626-93.931-31.484-91.729-32.47-89.58-33.969-88.068-36.014-87.201-38.057-86.344-40.183-86.344-42.39-87.201M-38.111 2.421C-38.861 2.69-39.595 2.69-40.291 2.421-40.938 2.159-41.416 1.645-41.748 .891-42.063 .192-42.063-.512-41.748-1.213-41.471-1.912-40.986-2.422-40.291-2.743-39.54-3.011-38.84-3.011-38.188-2.743-37.485-2.475-36.97-1.963-36.654-1.213-36.389-.512-36.389 .192-36.654 .891-36.927 1.591-37.41 2.101-38.111 2.421M-17.597-64.832C-18.303-66.567-18.303-68.229-17.597-69.847-16.955-71.397-15.802-72.558-14.129-73.318-12.405-74.02-10.764-74.02-9.203-73.318-7.589-72.667-6.399-71.511-5.647-69.847-5.007-68.122-5.007-66.483-5.647-64.909-6.294-63.3-7.459-62.12-9.116-61.364-10.846-60.717-12.521-60.717-14.129-61.364-15.683-62.006-16.846-63.167-17.597-64.832M-32.621-73.965C-31.914-73.212-31.572-72.345-31.572-71.378-31.572-70.41-31.914-69.54-32.621-68.79-33.377-68.095-34.229-67.745-35.208-67.745-36.116-67.745-36.953-68.095-37.709-68.79-38.411-69.54-38.786-70.41-38.84-71.378-38.84-72.345-38.459-73.212-37.709-73.965-36.953-74.667-36.116-75.003-35.208-75.003-34.229-75.003-33.377-74.667-32.621-73.965M-78.407-67.102C-79.636-65.914-81.06-65.323-82.68-65.323-84.295-65.323-85.752-65.914-87.033-67.102-88.219-68.333-88.812-69.762-88.812-71.378-88.812-72.986-88.219-74.418-87.033-75.659-85.801-76.843-84.376-77.428-82.762-77.428-81.147-77.428-79.696-76.843-78.407-75.659-77.218-74.418-76.619-72.986-76.619-71.378-76.619-69.762-77.218-68.333-78.407-67.102M-22.935-47.546C-22.935-46.851-23.146-46.29-23.58-45.864-24.06-45.426-24.646-45.188-25.349-45.138-26.006-45.188-26.565-45.426-27.049-45.864-27.485-46.344-27.724-46.909-27.771-47.546-27.724-48.254-27.485-48.851-27.049-49.333-26.565-49.758-26.006-49.98-25.349-49.98-24.646-49.98-24.06-49.737-23.58-49.248-23.146-48.818-22.935-48.254-22.935-47.546M-58.941-76.38C-60.344-76.38-61.502-76.843-62.41-77.756-63.274-78.678-63.725-79.824-63.784-81.228-63.725-82.57-63.274-83.706-62.41-84.613-61.502-85.538-60.344-86.009-58.941-86.076-57.54-86.009-56.413-85.538-55.555-84.613-54.632-83.706-54.153-82.57-54.1-81.228-54.153-79.824-54.632-78.678-55.555-77.756-56.413-76.843-57.54-76.38-58.941-76.38M-25.032-61.445C-24.712-60.636-24.712-59.887-25.032-59.187-25.349-58.429-25.896-57.869-26.648-57.492-27.451-57.217-28.24-57.217-28.989-57.492-29.74-57.814-30.278-58.38-30.599-59.187-30.92-60-30.92-60.771-30.599-61.53-30.278-62.226-29.74-62.762-28.989-63.142-28.18-63.462-27.401-63.462-26.648-63.142-25.896-62.81-25.349-62.251-25.032-61.445M-69.602-73.638C-71.053-73.095-72.449-73.095-73.798-73.638-75.146-74.231-76.113-75.229-76.706-76.629-77.244-78.082-77.244-79.481-76.706-80.825-76.167-82.162-75.173-83.136-73.711-83.733-72.26-84.271-70.885-84.271-69.602-83.733-68.254-83.188-67.259-82.204-66.612-80.744-66.073-79.297-66.102-77.916-66.698-76.629-67.231-75.275-68.205-74.282-69.602-73.638M-26.152-34.161C-26.375-33.671-26.706-33.348-27.126-33.185-27.56-32.973-28.018-32.939-28.495-33.109-28.989-33.319-29.305-33.641-29.463-34.076-29.691-34.564-29.708-35.032-29.551-35.531-29.338-36.009-28.989-36.337-28.495-36.498-28.066-36.653-27.62-36.653-27.126-36.498-26.648-36.284-26.32-35.952-26.152-35.531-25.94-35.101-25.94-34.632-26.152-34.161M-47.803-74.762C-48.874-75.258-49.635-76.004-50.064-77.025-50.543-78.105-50.575-79.212-50.141-80.347-49.652-81.418-48.874-82.162-47.803-82.608-46.776-83.032-45.704-83.032-44.574-82.608-43.492-82.113-42.731-81.354-42.308-80.347-41.818-79.313-41.797-78.241-42.227-77.106-42.715-75.98-43.492-75.197-44.574-74.762-45.603-74.335-46.667-74.335-47.803-74.762" fill="#001a51" fill-rule="evenodd"></path>
<path transform="matrix(1,0,0,-1,639.833,547.3164)" d="M0 0C.343 1.346 .679 2.602 1 3.765 1.321 4.926 1.631 6.039 1.94 7.104 2.245 8.167 2.545 9.197 2.827 10.203 3.12 11.202 3.392 12.219 3.659 13.254 3.762 13.661 3.822 14.046 3.839 14.418 3.854 14.793 3.909 15.188 4.001 15.586 4.05 15.724 4.131 15.844 4.251 15.955 4.371 16.066 4.513 16.161 4.659 16.237 4.811 16.32 4.964 16.387 5.132 16.427 5.301 16.477 5.458 16.5 5.609 16.5 5.931 16.5 6.197 16.46 6.409 16.39 6.621 16.31 6.795 16.209 6.926 16.084 7.062 15.955 7.154 15.81 7.202 15.625 7.257 15.451 7.285 15.252 7.285 15.03 7.285 14.642 7.22 14.248 7.094 13.853 6.964 13.455 6.812 13.021 6.626 12.545 7.165 12.976 7.719 13.376 8.29 13.754 8.861 14.14 9.447 14.471 10.051 14.762 10.654 15.043 11.274 15.273 11.905 15.444 12.541 15.621 13.193 15.707 13.874 15.707 14.188 15.707 14.492 15.656 14.809 15.558 15.117 15.466 15.395 15.309 15.645 15.106 15.89 14.896 16.096 14.623 16.264 14.293 16.433 13.958 16.525 13.545 16.548 13.064 17.042 13.398 17.554 13.737 18.086 14.074 18.612 14.416 19.151 14.721 19.7 14.996 20.243 15.258 20.793 15.479 21.336 15.646 21.885 15.81 22.417 15.895 22.936 15.895 23.705 15.895 24.342 15.795 24.843 15.596 25.342 15.392 25.739 15.125 26.033 14.786 26.326 14.439 26.533 14.046 26.652 13.604 26.772 13.153 26.838 12.677 26.838 12.17 26.838 11.617 26.783 11.044 26.68 10.459 26.576 9.871 26.463 9.313 26.332 8.785 26.001 7.453 25.624 6.191 25.218 4.994 24.799 3.805 24.354 2.602 23.863 1.381 23.756 1.093 23.63 .789 23.505 .462 23.375 .145 23.228-.152 23.065-.422 22.901-.695 22.7-.917 22.478-1.096 22.255-1.272 21.993-1.359 21.694-1.359 21.016-1.359 20.548-1.245 20.292-1.015 20.042-.787 19.917-.461 19.917-.034 19.917 .078 19.923 .212 19.934 .364 19.944 .514 19.972 .654 20.021 .794 20.063 .97 20.168 1.218 20.331 1.55 20.487 1.876 20.662 2.223 20.853 2.609 21.049 2.984 21.233 3.37 21.418 3.754 21.603 4.139 21.738 4.474 21.83 4.762 21.978 5.257 22.156 5.833 22.357 6.484 22.56 7.134 22.749 7.786 22.936 8.447 23.119 9.111 23.271 9.736 23.391 10.329 23.511 10.919 23.57 11.401 23.57 11.771 23.57 11.942 23.56 12.116 23.521 12.291 23.489 12.461 23.424 12.608 23.342 12.736 23.255 12.866 23.136 12.965 22.978 13.049 22.82 13.127 22.625 13.166 22.38 13.166 22.038 13.166 21.631 13.071 21.146 12.877 20.667 12.683 20.179 12.42 19.661 12.107 19.151 11.791 18.656 11.432 18.173 11.035 17.689 10.644 17.275 10.245 16.927 9.854 16.687 9.579 16.454 9.354 16.237 9.183 16.021 9.01 15.803 8.876 15.579 8.785 15.559 8.742 15.503 8.583 15.411 8.328 15.319 8.066 15.21 7.763 15.086 7.397 14.959 7.034 14.824 6.645 14.683 6.221 14.553 5.8 14.416 5.411 14.298 5.048 14.177 4.688 14.073 4.382 13.993 4.131 13.916 3.887 13.874 3.754 13.874 3.729 13.791 3.407 13.726 3.073 13.666 2.733 13.612 2.396 13.558 2.071 13.514 1.762 13.465 1.451 13.422 1.115 13.384 .77 13.34 .419 13.258 .092 13.139-.212 13.02-.521 12.834-.772 12.59-.968 12.345-1.163 11.998-1.262 11.546-1.262 11.317-1.262 11.105-1.201 10.915-1.091 10.726-.974 10.563-.821 10.427-.645 10.285-.468 10.176-.267 10.096-.043 10.013 .183 9.97 .408 9.959 .638 10.22 1.672 10.481 2.609 10.73 3.43 10.986 4.262 11.242 5.056 11.491 5.816 11.747 6.575 11.991 7.337 12.227 8.104 12.465 8.871 12.699 9.71 12.927 10.629 12.981 10.85 13.03 11.067 13.063 11.28 13.101 11.492 13.111 11.679 13.111 11.838 13.111 12.116 13.058 12.345 12.943 12.519 12.829 12.698 12.628 12.792 12.34 12.792 11.867 12.792 11.399 12.696 10.933 12.508 10.464 12.312 9.965 12.013 9.42 11.617 8.883 11.211 8.279 10.702 7.617 10.083 6.958 9.458 6.191 8.713 5.333 7.852 5.24 7.684 5.121 7.361 4.968 6.887 4.822 6.415 4.663 5.914 4.513 5.385 4.354 4.854 4.213 4.361 4.088 3.908 3.963 3.458 3.887 3.146 3.85 3.007 3.719 2.52 3.638 2.116 3.589 1.789 3.544 1.457 3.5 1.163 3.469 .897 3.446 .758 3.408 .532 3.365 .216 3.322-.104 3.234-.422 3.114-.746 2.996-1.066 2.821-1.352 2.604-1.594 2.388-1.843 2.1-1.968 1.739-1.968 1.218-1.968 .778-1.824 .441-1.538 .098-1.245-.069-.885-.069-.451-.069-.37-.061-.29-.055-.224-.038-.154-.021-.081 0 0" fill="#00aedb"></path>
<path transform="matrix(1,0,0,-1,670.585,545.3984)" d="M0 0C.092 0 .174-.016 .249-.04 .325-.059 .406-.085 .5-.113 .592-.144 .694-.171 .815-.189 .929-.217 1.075-.228 1.26-.228 1.798-.228 2.402-.171 3.064-.054 3.729 .061 4.348 .212 4.936 .396 5.521 .577 6.027 .789 6.446 1.028 6.865 1.261 7.104 1.506 7.164 1.757 7.196 1.901 7.212 2.018 7.212 2.123 7.212 2.316 7.12 2.501 6.93 2.681 6.74 2.857 6.5 3.029 6.213 3.188 5.93 3.349 5.614 3.501 5.283 3.64 4.946 3.775 4.636 3.903 4.348 4.017L3.767 4.259C3.462 4.374 3.168 4.518 2.881 4.684 2.598 4.855 2.325 5.043 2.081 5.263 1.832 5.48 1.613 5.738 1.423 6.028 1.233 6.322 1.097 6.663 .999 7.041 .956 7.203 .918 7.364 .89 7.524 .863 7.682 .848 7.858 .848 8.042 .848 8.339 .944 8.681 1.146 9.068 1.349 9.451 1.619 9.839 1.956 10.215 2.299 10.594 2.685 10.959 3.113 11.304 3.543 11.649 4 11.938 4.468 12.167 4.815 12.405 5.153 12.628 5.473 12.821 5.794 13.014 6.12 13.186 6.446 13.325 6.772 13.46 7.109 13.569 7.446 13.649 7.783 13.732 8.146 13.77 8.528 13.77 8.87 13.77 9.246 13.75 9.648 13.718 10.051 13.683 10.42 13.604 10.751 13.475 11.089 13.351 11.365 13.163 11.588 12.916 11.812 12.672 11.925 12.341 11.925 11.928 11.925 11.797 11.909 11.631 11.876 11.421 11.845 11.215 11.779 11.008 11.702 10.801 11.621 10.594 11.522 10.416 11.409 10.267 11.295 10.117 11.159 10.041 10.996 10.041 10.729 10.041 10.513 10.095 10.339 10.198 10.164 10.301 10.013 10.413 9.871 10.536 9.734 10.654 9.594 10.77 9.441 10.87 9.295 10.977 9.104 11.024 8.887 11.024 8.625 11.024 8.315 10.977 7.963 10.877 7.614 10.78 7.257 10.65 6.887 10.483 6.521 10.318 6.158 10.123 5.81 9.905 5.451 9.685 5.136 9.461 4.858 9.231 4.576 8.999 4.348 8.771 4.174 8.552 4.006 8.324 3.919 8.123 3.919 7.937 3.919 7.738 3.984 7.582 4.108 7.456 4.233 7.328 4.396 7.214 4.592 7.125 4.843 6.985 5.136 6.85 5.462 6.709 5.788 6.573 6.12 6.437 6.456 6.298 6.788 6.159 7.114 6.024 7.43 5.882 7.745 5.747 8.021 5.622 8.251 5.504 8.561 5.345 8.838 5.186 9.088 5.032 9.332 4.877 9.545 4.703 9.719 4.518 9.894 4.336 10.022 4.126 10.115 3.896 10.208 3.667 10.251 3.398 10.251 3.083 10.251 2.939 10.24 2.789 10.219 2.637 10.191 2.488 10.158 2.316 10.115 2.123 10.077 1.948 10.018 1.746 9.931 1.512 9.843 1.283 9.757 1.061 9.659 .837 9.555 .616 9.458 .408 9.354 .229 9.251 .055 9.165-.067 9.093-.125 8.647-.538 8.121-.923 7.507-1.288 6.897-1.648 6.262-1.966 5.599-2.236 4.94-2.505 4.277-2.725 3.614-2.886 2.951-3.047 2.348-3.129 1.798-3.129 1.521-3.129 1.218-3.071 .881-2.962 .549-2.851 .239-2.709-.044-2.527-.326-2.353-.561-2.149-.751-1.921-.941-1.687-1.033-1.459-1.033-1.225-1.033-1.11-1.001-.983-.931-.839-.865-.695-.773-.565-.668-.444-.566-.32-.458-.217-.339-.13-.213-.044-.104 0 0 0" fill="#001a51"></path>
<path transform="matrix(1,0,0,-1,845.6689,531.1826)" d="M0 0H-19.896V3.837C-17.884 3.885-16.605 4.085-16.06 4.441-15.302 4.915-14.923 6.041-14.923 7.816-14.923 8.101-14.946 8.479-14.993 8.953L-17.48 34.215C-20.441 28.862-23.296 23.07-26.044 16.841-28.673 10.659-31.302 4.477-33.932-1.706H-36.951L-52.478 36.916C-53.567 25.393-54.112 17.939-54.112 14.557-54.112 7.623-52.218 4.05-48.427 3.837V0H-66.867V3.66C-64.617 4.181-62.924 5.792-61.787 8.492-59.845 13.134-58.423 20.334-57.522 30.094-56.884 36.725-56.563 40.385-56.563 41.072-56.563 42.47-56.808 43.364-57.293 43.755-57.778 44.146-59.135 44.376-61.36 44.448V48.285H-47.742L-32.973 11.83-25.12 30.413C-21.805 38.229-19.531 44.187-18.299 48.285H-3.553V44.448C-5.993 44.376-7.533 44.14-8.172 43.737-8.859 43.264-9.202 42.304-9.202 40.86-9.202 36.903-8.859 31.977-8.172 26.079-7.58 21.176-6.999 16.26-6.432 11.334-6.146 8.373-5.779 6.501-5.33 5.72-4.667 4.535-2.89 3.909 0 3.837Z" fill="#005aa4"></path>
<path transform="matrix(1,0,0,-1,867.541,506.27644)" d="M0 0C-.332 1.777-.972 3.257-1.918 4.441-3.175 6.028-4.82 6.821-6.857 6.821-8.729 6.821-10.387 6.123-11.831 4.726-13.134 3.47-14.022 1.895-14.496 0ZM9.273-15.171C3.541-22.348-2.038-25.937-7.461-25.937-11.677-25.937-15.23-24.149-18.12-20.572-20.797-17.232-22.135-13.418-22.135-9.131-22.135-4.015-20.536 .581-17.339 4.654-13.88 9.037-9.652 11.228-4.654 11.228-.746 11.228 2.404 9.794 4.797 6.928 6.929 4.347 8.077 .723 8.243-3.943H-15.172V-4.938C-15.172-8.491-14.306-11.583-12.573-14.211-10.581-17.268-7.877-18.795-4.461-18.795-.643-18.795 3.936-15.704 9.273-9.521Z" fill="#005aa4"></path>
<path transform="matrix(1,0,0,-1,903.3066,507.1187)" d="M0 0C0 1.396-.118 2.648-.354 3.761-3.388 6.22-6.288 7.452-9.06 7.452-12.092 7.452-14.448 5.688-16.13 2.164-17.48-.627-18.155-3.703-18.155-7.061-18.155-9.639-17.623-12.004-16.556-14.157-15.207-16.83-13.347-18.166-10.978-18.166-7.876-18.166-5.199-15.955-2.948-11.531-.982-7.629 0-3.785 0 0M12.578-21.115 2.523-25.059H-.425V-15.395C-2.89-18.416-4.867-20.552-6.359-21.803-8.966-23.974-11.582-25.059-14.211-25.059-17.859-25.059-20.773-23.379-22.952-20.018-24.823-17.131-25.758-13.772-25.758-9.938-25.758-4.803-23.946 .06-20.322 4.651-16.366 9.645-11.843 12.142-6.75 12.142-4.903 12.142-2.794 11.679-.425 10.756V18.856C-.425 20.183-.852 20.846-1.704 20.846-2.392 20.846-3.789 20.432-5.897 19.602V23.901L8.741 29.48V25.722C7.698 25.319 7.178 24.741 7.178 23.985V-16.252C7.178-17.528 7.676-18.166 8.67-18.166 9.285-18.166 10.589-17.74 12.578-16.887Z" fill="#005aa4"></path>
<path transform="matrix(1,0,0,-1,947.458,516.6514)" d="M0 0C0-4.382-1.99-8.136-5.97-11.263-9.641-14.128-13.68-15.562-18.085-15.562-21.378-15.562-25.274-14.698-29.774-12.968V1.812H-25.049C-25.049-1.978-24.185-5.033-22.455-7.354-20.632-9.794-18.287-11.014-15.42-11.014-13.146-11.014-11.312-10.368-9.913-9.078-8.516-7.787-7.816-6.028-7.816-3.801-7.816-1.48-8.918 .711-11.121 2.772-12.045 3.625-14.318 5.271-17.942 7.711-21.07 9.771-23.391 11.453-24.906 12.755-27.394 14.887-28.638 17.552-28.638 20.75-28.638 24.872-26.79 28.306-23.095 31.053-19.708 33.541-15.895 34.784-11.654 34.784-9.404 34.784-6.194 34.074-2.025 32.652V19.506H-6.751C-6.917 22.42-7.58 24.812-8.74 26.683-10.21 29.028-12.294 30.201-14.994 30.201-16.723 30.201-18.156 29.698-19.293 28.69-20.43 27.684-20.999 26.316-20.999 24.587-20.999 22.432-19.626 20.146-16.877 17.73-15.835 16.83-13.562 15.207-10.055 12.862-6.668 10.588-4.406 8.859-3.27 7.675-1.091 5.401 0 2.843 0 0" fill="#005aa4"></path>
<path transform="matrix(1,0,0,-1,979.6699,521.6602)" d="M0 0C-5.639-7.035-11.086-10.553-16.345-10.553-20.703-10.553-24.268-8.836-27.039-5.401-29.598-2.203-30.877 1.609-30.877 6.039-30.877 11.512-29.1 16.284-25.547 20.358-21.804 24.597-17.245 26.719-11.867 26.719-8.694 26.719-5.07 25.794-.995 23.947V12.791H-5.756C-5.827 15.964-6.609 18.356-8.103 19.967-9.595 21.578-11.548 22.383-13.964 22.383-17.09 22.383-19.542 20.938-21.318 18.049-22.812 15.608-23.558 12.743-23.558 9.45-23.558 6.039-22.764 3.102-21.177 .639-19.329-2.203-16.771-3.625-13.503-3.625-10.232-3.625-5.733-.546 0 5.613Z" fill="#005aa4"></path>
<path transform="matrix(1,0,0,-1,996.0352,484.49659)" d="M0 0C0-1.278-.437-2.351-1.314-3.215-2.19-4.081-3.27-4.512-4.548-4.512-5.805-4.512-6.863-4.081-7.729-3.215-8.592-2.351-9.024-1.278-9.024 0-9.024 1.232-8.6 2.292-7.745 3.181-6.894 4.068-5.852 4.513-4.618 4.513-3.316 4.513-2.221 4.08-1.332 3.216-.444 2.351 0 1.279 0 0M4.797-46.686H-13.856V-42.849C-11.702-42.801-10.292-42.541-9.629-42.067-8.775-41.475-8.351-40.208-8.351-38.265V-18.511C-8.351-17.706-8.858-17.303-9.877-17.303L-13.856-18.44V-14.46L-3.767-10.48H-.71V-38.265C-.71-40.208-.284-41.475 .568-42.067 1.23-42.541 2.642-42.801 4.797-42.849Z" fill="#005aa4"></path>
<path transform="matrix(1,0,0,-1,1067.2334,531.1826)" d="M0 0H-19.791V3.837C-17.541 3.86-16.097 4.109-15.456 4.583-14.674 5.151-14.284 6.466-14.284 8.528V24.089H-34.181V8.528C-34.181 5.494-32.346 3.932-28.673 3.837V0H-48.463V3.837C-46.189 3.885-44.745 4.132-44.129 4.583-43.37 5.128-42.992 6.442-42.992 8.528V39.793C-42.992 41.854-43.37 43.157-44.129 43.702-44.745 44.151-46.189 44.4-48.463 44.448V48.285H-28.673V44.448C-30.972 44.4-32.416 44.151-33.007 43.702-33.79 43.157-34.181 41.854-34.181 39.793V28.459H-14.284V39.793C-14.284 41.854-14.674 43.157-15.456 43.702-16.048 44.151-17.494 44.4-19.791 44.448V48.285H0V44.448C-2.274 44.4-3.721 44.151-4.335 43.702-5.093 43.157-5.473 41.854-5.473 39.793V8.528C-5.473 6.442-5.093 5.116-4.335 4.548-3.742 4.121-2.298 3.885 0 3.837Z" fill="#005aa4"></path>
<path transform="matrix(1,0,0,-1,1090.919,506.27644)" d="M0 0C-.332 1.777-.973 3.257-1.919 4.441-3.175 6.028-4.82 6.821-6.857 6.821-8.729 6.821-10.388 6.123-11.831 4.726-13.135 3.47-14.022 1.895-14.496 0ZM9.272-15.171C3.541-22.348-2.038-25.937-7.461-25.937-11.679-25.937-15.23-24.149-18.12-20.572-20.797-17.232-22.135-13.418-22.135-9.131-22.135-4.015-20.536 .581-17.339 4.654-13.88 9.037-9.652 11.228-4.655 11.228-.746 11.228 2.403 9.794 4.796 6.928 6.928 4.347 8.076 .723 8.243-3.943H-15.172V-4.938C-15.172-8.491-14.307-11.583-12.573-14.211-10.581-17.268-7.877-18.795-4.461-18.795-.644-18.795 3.936-15.704 9.272-9.521Z" fill="#005aa4"></path>
<path transform="matrix(1,0,0,-1,1121.8174,511.28559)" d="M0 0C-2.819-.735-5.4-1.824-7.746-3.27-11.134-5.377-12.826-7.687-12.826-10.198-12.826-12.755-11.513-14.035-8.883-14.035-5.922-14.035-3.637-12.33-2.025-8.919-.865-6.432-.189-3.459 0 0M13.819-14.958C9.747-18.938 6.407-20.927 3.802-20.927 1.03-20.927-.355-19.423-.355-16.415V-13.645C-5.449-18.5-9.605-20.927-12.826-20.927-15.029-20.927-16.849-20.099-18.28-18.44-19.714-16.782-20.431-14.84-20.431-12.613-20.431-7.023-13.739-1.172-.355 4.938V8.598C-.355 10.943-1.492 12.115-3.767 12.115-6.135 12.115-8.138 10.883-9.771 8.42-11.216 6.288-12.128 3.494-12.507 .036H-16.948V10.304C-10.907 14.307-5.342 16.309-.248 16.309 4.749 16.309 7.248 13.738 7.248 8.598V-13.963C7.248-14.343 7.391-14.532 7.675-14.532 8.36-14.532 10.41-12.969 13.819-9.842Z" fill="#005aa4"></path>
<path transform="matrix(1,0,0,-1,1154.5977,531.1826)" d="M0 0H-18.688V3.837C-16.558 3.885-15.148 4.145-14.461 4.619-13.584 5.211-13.146 6.478-13.146 8.421V42.743C-13.146 44.235-13.703 44.981-14.815 44.981-15.456 44.981-16.746 44.649-18.688 43.986V47.93L-3.979 53.721V50.026C-4.998 49.505-5.507 48.841-5.507 48.036V8.421C-5.507 6.478-5.081 5.211-4.229 4.619-3.565 4.145-2.155 3.885 0 3.837Z" fill="#005aa4"></path>
<path transform="matrix(1,0,0,-1,1176.6484,502.5454)" d="M0 0H-8.848V-22.1C-8.848-22.905-8.6-23.308-8.102-23.308-7.177-23.308-5.649-22.419-3.519-20.643-3.232-20.407-2.44-19.862-1.138-19.008V-23.557C-5.686-27.631-9.31-29.667-12.01-29.667-14.972-29.667-16.45-27.571-16.45-23.379V0H-21.993V3.766C-19.729 3.766-18.24 4.002-17.524 4.477-16.572 5.068-16.096 6.383-16.096 8.421V14.567L-6.572 18.44V14.141C-8.089 13.761-8.848 12.328-8.848 9.842-8.848 7.733-8.54 6.241-7.927 5.364-7.196 4.299-5.897 3.766-4.034 3.766H0Z" fill="#005aa4"></path>
<path transform="matrix(1,0,0,-1,1216.3936,531.1826)" d="M0 0H-14.709V3.802C-13.667 3.849-13.146 4.168-13.146 4.761V26.292C-13.146 28.708-14.06 29.916-15.882 29.916-19.057 29.916-21.779 27.429-24.055 22.455-26.021 18.167-27.003 14.046-27.003 10.09-27.003 5.945-25.878 3.873-23.628 3.873L-21.105 3.802V0H-39.616V3.802C-37.508 3.849-36.123 4.109-35.459 4.583-34.606 5.201-34.181 6.468-34.181 8.389V44.056C-34.181 44.744-34.619 45.088-35.494 45.088-36.253 45.088-37.626 44.696-39.616 43.915V47.93L-25.084 53.721V49.884C-26.057 49.505-26.541 48.877-26.541 48V26.434C-21.474 32.971-16.782 36.241-12.472 36.241-7.829 36.241-5.507 33.24-5.507 27.242V8.39C-5.507 6.421-5.081 5.141-4.229 4.548-3.589 4.097-2.181 3.849 0 3.802Z" fill="#005aa4"></path>
<path transform="matrix(1,0,0,-1,1248.1084,521.6602)" d="M0 0C-5.639-7.035-11.086-10.553-16.345-10.553-20.702-10.553-24.268-8.836-27.038-5.401-29.598-2.203-30.876 1.609-30.876 6.039-30.876 11.512-29.1 16.284-25.546 20.358-21.805 24.597-17.244 26.719-11.867 26.719-8.693 26.719-5.069 25.794-.994 23.947V12.791H-5.756C-5.826 15.964-6.609 18.356-8.102 19.967-9.593 21.578-11.547 22.383-13.963 22.383-17.089 22.383-19.541 20.938-21.318 18.049-22.812 15.608-23.558 12.743-23.558 9.45-23.558 6.039-22.764 3.102-21.176 .639-19.329-2.203-16.771-3.625-13.502-3.625-10.232-3.625-5.732-.546 0 5.613Z" fill="#005aa4"></path>
<path transform="matrix(1,0,0,-1,1270.9756,511.28559)" d="M0 0C-2.819-.735-5.4-1.824-7.745-3.27-11.134-5.377-12.826-7.687-12.826-10.198-12.826-12.755-11.513-14.035-8.883-14.035-5.922-14.035-3.637-12.33-2.025-8.919-.865-6.432-.189-3.459 0 0M13.82-14.958C9.747-18.938 6.407-20.927 3.802-20.927 1.03-20.927-.354-19.423-.354-16.415V-13.645C-5.448-18.5-9.605-20.927-12.826-20.927-15.029-20.927-16.849-20.099-18.28-18.44-19.713-16.782-20.431-14.84-20.431-12.613-20.431-7.023-13.739-1.172-.354 4.938V8.598C-.354 10.943-1.492 12.115-3.767 12.115-6.135 12.115-8.138 10.883-9.771 8.42-11.216 6.288-12.128 3.494-12.507 .036H-16.948V10.304C-10.907 14.307-5.342 16.309-.248 16.309 4.749 16.309 7.248 13.738 7.248 8.598V-13.963C7.248-14.343 7.391-14.532 7.675-14.532 8.36-14.532 10.41-12.969 13.82-9.842Z" fill="#005aa4"></path>
<path transform="matrix(1,0,0,-1,1313.456,508.76368)" d="M0 0H-4.688C-4.713 4.335-5.613 6.502-7.391 6.502-9.973 6.502-12.104 4.064-13.785-.813-15.184-4.833-15.881-8.674-15.881-12.337-15.881-15.025-15.407-16.75-14.46-17.511-13.583-18.226-11.357-18.582-7.78-18.582V-22.419H-28.672V-18.582C-26.541-18.534-25.131-18.274-24.443-17.8-23.568-17.208-23.13-15.941-23.13-13.998V4.726C-23.13 6.147-23.557 6.858-24.408 6.858-24.931 6.858-26.353 6.443-28.672 5.615V9.558L-18.333 13.787H-15.454V4.69C-11.452 10.753-7.604 13.787-3.907 13.787-3.008 13.787-1.704 13.502 0 12.933Z" fill="#005aa4"></path>
<path transform="matrix(1,0,0,-1,1335.7559,506.27644)" d="M0 0C-.331 1.777-.973 3.257-1.918 4.441-3.174 6.028-4.819 6.821-6.857 6.821-8.729 6.821-10.387 6.123-11.83 4.726-13.134 3.47-14.021 1.895-14.496 0ZM9.272-15.171C3.542-22.348-2.037-25.937-7.461-25.937-11.677-25.937-15.229-24.149-18.12-20.572-20.797-17.232-22.134-13.418-22.134-9.131-22.134-4.015-20.536 .581-17.339 4.654-13.88 9.037-9.651 11.228-4.654 11.228-.745 11.228 2.404 9.794 4.797 6.928 6.929 4.347 8.077 .723 8.243-3.943H-15.171V-4.938C-15.171-8.491-14.307-11.583-12.573-14.211-10.581-17.268-7.877-18.795-4.461-18.795-.643-18.795 3.937-15.704 9.272-9.521Z" fill="#005aa4"></path>
<path transform="matrix(1,0,0,-1,780.792,591.3369)" d="M0 0C1.183 .434 2.87 .648 5.063 .648 5.929 2.495 6.766 4.948 7.573 8.006 8.381 11.064 9.334 14.988 10.43 19.779 10.574 20.413 10.928 21.936 11.49 24.344 12.053 26.753 12.535 28.506 12.94 29.604 10.661 29.544 8.864 29.458 7.552 29.343 6.238 29.229 4.789 29.024 3.202 28.737 3.404 29.863 4.205 30.699 5.604 31.247 7.004 31.795 9.146 32.069 12.032 32.069 13.906 32.069 15.905 31.969 18.025 31.768 20.146 31.564 21.928 31.363 23.37 31.161 22.765 30.555 22.107 30.15 21.401 29.949 20.693 29.747 19.951 29.646 19.172 29.646 16.922 29.646 15.35 29.631 14.455 29.604L14.152 28.045C12.363 18.119 11.035 11.439 10.171 8.006 9.679 6.044 9.146 4.45 8.568 3.224 7.992 1.998 7.314 1.125 6.534 .606 7.891 .521 9.29 .39 10.732 .217 12.839-.043 14.569-.187 15.926-.216 14.686-1.456 13.055-2.078 11.035-2.078H8.915C6.261-2.105 4.168-2.157 2.64-2.229 1.109-2.3-.433-2.495-1.991-2.813-1.847-1.37-1.184-.433 0 0" fill="#666666"></path>
<path transform="matrix(1,0,0,-1,819.959,590.7959)" d="M0 0C-.49 .591-.736 1.349-.736 2.271-.736 3.052-.505 4.19-.043 5.691 .101 6.182 .238 6.672 .368 7.162 .497 7.652 .563 8.071 .563 8.418 .563 8.938 .439 9.326 .194 9.586-.051 9.847-.346 9.977-.692 9.977-1.356 9.977-2.07 9.507-2.835 8.568-3.6 7.631-4.775 5.95-6.361 3.527-6.767 2.893-7.328 1.824-8.05 .324L-8.439-.498C-8.901-.498-9.385-.417-9.89-.26-10.395-.101-10.646 .107-10.646 .367-10.646 .568-10.401 1.334-9.911 2.661-9.306 4.45-8.822 5.958-8.461 7.185-8.101 8.41-7.92 9.457-7.92 10.321-7.92 11.418-8.281 11.967-9.001 11.967-9.811 11.967-10.856 11.316-12.14 10.019-13.424 8.721-14.687 7.083-15.927 5.106-17.168 3.131-18.134 1.19-18.826-.715-19.259-.715-19.757-.612-20.319-.411-20.882-.208-21.163-.007-21.163 .195-21.163 .281-20.961 .959-20.558 2.229-19.894 4.161-19.338 5.937-18.891 7.552-18.444 9.168-18.206 10.566-18.177 11.75-17.976 11.98-17.687 12.189-17.312 12.378-16.937 12.564-16.562 12.658-16.187 12.658-15.407 12.658-15.018 12.284-15.018 11.533-15.018 10.755-15.393 9.109-16.143 6.601-14.729 8.851-13.207 10.782-11.577 12.399-9.947 14.016-8.425 14.822-7.011 14.822-6.174 14.822-5.576 14.521-5.216 13.915-4.854 13.309-4.674 12.515-4.674 11.533-4.674 10.553-4.818 9.484-5.107 8.332-5.396 7.177-5.698 6.211-6.016 5.432-4.92 7.423-3.78 9.029-2.597 10.258-1.414 11.483-.159 12.097 1.169 12.097 2.034 12.097 2.662 11.837 3.051 11.316 3.44 10.798 3.635 10.135 3.635 9.326 3.635 8.777 3.563 8.193 3.42 7.573 3.274 6.953 3.059 6.195 2.77 5.302 2.278 3.771 2.034 2.706 2.034 2.1 2.034 1.117 2.467 .627 3.332 .627 4.4 .627 5.41 1.282 6.362 2.597 7.313 3.909 8.237 5.532 9.133 7.466L9.65 6.859C8.843 4.725 7.791 2.899 6.491 1.385 5.193-.13 3.751-.888 2.164-.888 1.212-.888 .49-.591 0 0" fill="#666666"></path>
<path transform="matrix(1,0,0,-1,824.8926,602.1123)" d="M0 0C-.201 .23-.375 .489-.52 .777-.663 1.066-.721 1.24-.692 1.298-.289 2.683 .201 4.212 .778 5.885 1.413 7.731 1.947 9.419 2.38 10.948 2.813 12.478 3.268 14.547 3.743 17.158 4.22 19.77 4.703 23.109 5.193 27.179 5.221 27.467 5.287 27.661 5.388 27.763 5.488 27.863 5.698 27.915 6.016 27.915 6.708 27.915 7.228 27.719 7.573 27.33 7.919 26.939 8.093 26.471 8.093 25.923 8.093 25.114 7.761 23.168 7.097 20.08 7.991 21.812 9.081 23.305 10.364 24.56 11.648 25.814 13.056 26.442 14.585 26.442 15.854 26.442 16.899 25.987 17.723 25.078 18.545 24.17 18.956 22.979 18.956 21.508 18.956 19.979 18.508 18.355 17.614 16.64 16.72 14.923 15.486 13.494 13.914 12.354 12.342 11.216 10.617 10.646 8.741 10.646 8.021 10.646 7.422 10.726 6.946 10.884 6.471 11.042 6.231 11.224 6.231 11.424 6.231 11.512 6.34 11.568 6.557 11.598 6.773 11.627 7.025 11.641 7.313 11.641 8.813 11.641 10.242 12.117 11.598 13.068 12.954 14.021 14.051 15.232 14.888 16.706 15.725 18.176 16.143 19.647 16.143 21.118 16.143 22.1 15.933 22.899 15.516 23.521 15.097 24.141 14.483 24.451 13.676 24.451 12.753 24.451 11.808 24.068 10.842 23.305 9.874 22.54 9.008 21.616 8.244 20.534 7.48 19.453 6.895 18.437 6.491 17.483 5.424 12.925 4.393 8.966 3.397 5.604 2.402 2.242 1.659 .331 1.169-.131 1.023-.275 .852-.348 .649-.348 .418-.348 .201-.231 0 0" fill="#666666"></path>
<path transform="matrix(1,0,0,-1,850.3613,590.6885)" d="M0 0C-.562 .521-.843 1.197-.843 2.034-.843 3.015-.426 4.43 .411 6.276 .786 7.229 1.067 7.985 1.256 8.549 1.443 9.111 1.537 9.637 1.537 10.128 1.537 10.848 1.37 11.418 1.039 11.837 .707 12.256 .34 12.602-.064 12.876-.469 13.15-.743 13.331-.887 13.417-1.521 11.801-2.2 10.222-2.921 8.678-3.642 7.134-4.248 5.944-4.738 5.107L-5.128 5.843C-3.743 8.527-2.574 11.269-1.622 14.066-1.911 14.354-2.056 14.701-2.056 15.105-2.056 15.624-1.947 16.115-1.73 16.577-1.515 17.038-1.254 17.399-.951 17.658-.648 17.918-.411 18.048-.237 18.048 .166 18.048 .369 17.702 .369 17.009 .369 16.894 .296 16.634 .152 16.23 .008 15.826-.079 15.552-.107 15.408-.107 15.119 .015 14.853 .261 14.607 .505 14.361 .902 14.051 1.45 13.677 2.345 13.042 3.044 12.414 3.549 11.794 4.054 11.173 4.307 10.373 4.307 9.392 4.307 8.757 4.206 8.129 4.004 7.51 3.802 6.888 3.499 6.074 3.096 5.064 2.46 3.679 2.143 2.684 2.143 2.078 2.143 1.213 2.576 .78 3.44 .78 4.307 .78 5.237 1.125 6.232 1.819 7.228 2.511 8.144 3.369 8.98 4.394 9.817 5.417 10.424 6.363 10.799 7.229L11.361 6.796C10.467 4.804 9.168 3.044 7.466 1.516 5.764-.013 4.048-.778 2.316-.778 1.335-.778 .563-.519 0 0" fill="#666666"></path>
<path transform="matrix(1,0,0,-1,871.417,581.9238)" d="M0 0C.461 1.169 .692 2.242 .692 3.225 .692 4.031 .569 4.638 .324 5.042 .079 5.445-.231 5.647-.606 5.647-1.01 5.647-1.421 5.454-1.84 5.063-2.259 4.675-2.604 4.14-2.878 3.462-3.152 2.784-3.289 2.042-3.289 1.232-3.289 .339-3.167-.521-2.922-1.342-2.677-2.163-2.309-2.864-1.818-3.44-1.067-2.315-.462-1.168 0 0M-10.776-8.721C-11.324-8-11.599-7.048-11.599-5.864-11.599-4.682-11.354-3.44-10.863-2.143-10.373-.844-9.737 .237-8.959 1.104-8.18 1.97-7.4 2.402-6.622 2.402-6.362 2.402-6.059 2.33-5.713 2.186-6.059 1.897-6.478 1.263-6.968 .281-7.459-.7-7.884-1.746-8.245-2.856-8.606-3.968-8.785-4.869-8.785-5.562-8.785-7.206-8.266-8.028-7.228-8.028-6.622-8.028-5.9-7.71-5.063-7.076-4.227-6.441-3.404-5.604-2.597-4.566-3.404-3.902-4.032-3.037-4.479-1.969-4.928-.901-5.15 .209-5.15 1.363-5.15 2.863-4.769 4.146-4.003 5.215-3.239 6.281-2.207 6.815-.909 6.815 .187 6.815 .959 6.521 1.407 5.93 1.854 5.338 2.077 4.522 2.077 3.483 2.077 2.388 1.81 1.153 1.276-.216 .743-1.586 .043-2.921-.823-4.22-.304-4.509 .245-4.652 .822-4.652 1.659-4.652 2.523-4.4 3.419-3.895 4.313-3.392 4.991-2.604 5.453-1.537L5.973-1.969C5.424-3.238 4.646-4.177 3.636-4.782 2.625-5.389 1.586-5.691 .519-5.691-.26-5.691-.952-5.546-1.558-5.259-2.597-6.614-3.7-7.71-4.869-8.548-6.037-9.384-7.142-9.803-8.18-9.803-9.363-9.803-10.229-9.441-10.776-8.721" fill="#666666"></path>
<path transform="matrix(1,0,0,-1,877.0205,590.7959)" d="M0 0C-.36 .821-.541 1.998-.541 3.527-.541 4.074-.454 5.966-.281 9.196-.225 10.063-.123 10.617 .021 10.862 .166 11.107 .526 11.23 1.104 11.23 1.595 11.23 1.904 11.137 2.033 10.949 2.164 10.762 2.229 10.394 2.229 9.847 2.229 9.269 2.171 8.201 2.056 6.644 1.911 5.259 1.839 4.003 1.839 2.878 1.839 2.013 1.911 1.392 2.056 1.017 2.2 .642 2.459 .454 2.835 .454 3.787 .454 4.941 1.428 6.298 3.376 7.653 5.322 8.879 7.509 9.977 9.933 10.033 11.75 10.229 13.02 10.561 13.741 10.892 14.462 11.361 14.822 11.967 14.822 12.457 14.822 12.839 14.643 13.114 14.281 13.388 13.921 13.525 13.553 13.525 13.179 13.525 12.89 13.38 12.485 13.092 11.967 12.745 11.303 12.479 10.646 12.291 9.998 12.104 9.349 12.011 8.476 12.011 7.379 12.011 6.427 12.146 5.641 12.422 5.021 12.695 4.399 13.235 4.09 14.045 4.09 14.679 4.09 15.27 4.334 15.818 4.825 16.366 5.315 16.914 6.139 17.463 7.293L18.026 6.859C16.987 4.437 15.56 3.225 13.741 3.225 12.76 3.225 11.959 3.577 11.339 4.284 10.719 4.99 10.308 6.037 10.105 7.423 8.922 5.057 7.574 3.022 6.06 1.32 4.545-.383 3.138-1.232 1.839-1.232 .974-1.232 .36-.821 0 0" fill="#666666"></path>
<path transform="matrix(1,0,0,-1,900.6943,571.27737)" d="M0 0C-.332 .245-.498 .599-.498 1.06-.498 1.638-.152 2.157 .541 2.618 1.233 3.08 1.94 3.312 2.661 3.312 3.614 3.312 4.09 2.863 4.09 1.97 4.09 1.421 3.793 .896 3.203 .39 2.61-.115 1.969-.367 1.276-.367 .758-.367 .331-.246 0 0M-6.384-19.172C-6.961-18.495-7.25-17.622-7.25-16.555-7.25-15.429-6.925-13.871-6.275-11.88-5.627-9.889-4.819-8.144-3.852-6.644-2.886-5.143-1.94-4.393-1.018-4.393-.758-4.393-.534-4.479-.347-4.652-.159-4.826-.064-5.057-.064-5.345-.064-5.749-.527-6.715-1.45-8.244-2.401-9.832-3.16-11.253-3.722-12.507-4.285-13.763-4.566-14.953-4.566-16.078-4.566-17.088-4.4-17.773-4.068-18.134-3.737-18.495-3.196-18.675-2.445-18.675-.195-18.675 2.026-16.467 4.22-12.053L4.609-12.486C3.801-14.91 2.61-16.799 1.039-18.155-.534-19.511-2.187-20.188-3.918-20.188-4.984-20.188-5.807-19.85-6.384-19.172" fill="#666666"></path>
<path transform="matrix(1,0,0,-1,915.8203,590.4492)" d="M0 0C-.52 .505-.778 1.175-.778 2.012-.778 2.387-.714 2.826-.584 3.332-.455 3.837-.317 4.334-.173 4.825 0 5.345 .151 5.893 .281 6.471 .411 7.047 .476 7.566 .476 8.027 .476 9.44-.102 10.147-1.255 10.147-2.352 10.147-3.499 9.571-4.695 8.417-5.893 7.264-6.961 5.979-7.898 4.564-8.837 3.151-9.896 1.449-11.079-.542-11.57-.542-12.017-.461-12.421-.304-12.824-.145-13.143 .094-13.373 .41-13.373 .555-13.185 1.073-12.811 1.969-12.089 3.814-11.497 5.496-11.036 7.011-10.575 8.524-10.329 9.875-10.301 11.058-10.099 11.288-9.81 11.498-9.436 11.685-9.061 11.872-8.685 11.967-8.31 11.967-7.53 11.967-7.141 11.591-7.141 10.842-7.141 10.408-7.271 9.65-7.53 8.568-7.79 7.487-8.123 6.34-8.525 5.129-7.141 7.264-5.669 9.066-4.111 10.539-2.554 12.01-1.024 12.746 .476 12.746 1.543 12.746 2.344 12.361 2.879 11.599 3.411 10.834 3.679 9.917 3.679 8.85 3.679 8.215 3.599 7.608 3.44 7.032 3.281 6.455 3.044 5.792 2.727 5.042 2.467 4.406 2.265 3.858 2.121 3.396 1.976 2.936 1.904 2.473 1.904 2.012 1.904 .916 2.337 .366 3.202 .366 4.183 .366 5.2 1.017 6.254 2.314 7.307 3.613 8.31 5.215 9.262 7.118L9.737 6.557C7.661 1.68 5.164-.759 2.251-.759 1.27-.759 .52-.506 0 0" fill="#666666"></path>
<path transform="matrix(1,0,0,-1,928.2627,599.1914)" d="M0 0C.995 1.255 2.026 3.151 3.094 5.69 .987 4.624-.643 3.629-1.797 2.703-2.951 1.781-3.528 .757-3.528-.369-3.528-.83-3.435-1.197-3.246-1.473-3.059-1.746-2.807-1.884-2.489-1.884-1.826-1.884-.997-1.256 0 0M-4.134-2.641C-4.624-2.223-4.87-1.595-4.87-.759-4.87 .31-4.45 1.298-3.614 2.207-2.777 3.115-1.818 3.895-.736 4.544 .345 5.192 1.78 5.966 3.57 6.859 4.377 8.937 5.113 11.316 5.777 14 3.209 10.307 .857 8.461-1.277 8.461-2.287 8.461-3.081 8.844-3.657 9.607-4.235 10.372-4.523 11.389-4.523 12.658-4.523 14.563-3.91 16.381-2.685 18.111-1.458 19.843 .057 21.234 1.859 22.288 3.663 23.342 5.358 23.868 6.946 23.868 7.725 23.868 8.309 23.737 8.698 23.478 9.088 23.219 9.283 22.887 9.283 22.482 9.283 22.252 9.218 22.057 9.088 21.898 8.958 21.739 8.85 21.646 8.764 21.617 8.475 22.05 7.897 22.267 7.032 22.267 5.589 22.267 4.198 21.718 2.856 20.622 1.515 19.524 .424 18.197-.412 16.641-1.249 15.083-1.667 13.683-1.667 12.442-1.667 11.75-1.53 11.223-1.256 10.861-.982 10.501-.613 10.321-.152 10.321 .627 10.321 1.601 10.854 2.77 11.923 3.938 12.989 5.099 14.36 6.253 16.033L6.772 18.328C6.888 18.876 7.125 19.381 7.486 19.843 7.847 20.304 8.345 20.534 8.98 20.534 9.239 20.534 9.542 20.492 9.889 20.405 9.889 19.626 9.57 18.061 8.937 15.71 8.302 13.357 7.508 10.971 6.556 8.547 8.056 9.268 9.448 10.271 10.732 11.555 12.016 12.838 12.976 14.274 13.61 15.86L14.174 15.428C13.567 13.668 12.478 12.066 10.906 10.625 9.333 9.181 7.725 8.071 6.08 7.292 4.724 4.003 3.354 1.421 1.968-.455 .584-2.33-.859-3.269-2.359-3.269-3.052-3.269-3.644-3.06-4.134-2.641" fill="#666666"></path>
<path transform="matrix(1,0,0,-1,956.2842,587.2256)" d="M0 0C.664 2.481 1.731 5.973 3.203 10.475L.347 10.171C.375 11.439 1.573 12.319 3.939 12.812 5.006 16.07 6.231 19.691 7.618 23.674 7.646 23.76 7.754 24.077 7.94 24.626 8.129 25.174 8.224 25.708 8.224 26.228 8.224 26.458 8.188 26.616 8.115 26.702 8.043 26.79 7.877 26.833 7.618 26.833 6.723 26.833 5.865 26.37 5.043 25.448 4.221 24.523 3.55 23.415 3.03 22.115 2.511 20.816 2.251 19.678 2.251 18.696 2.251 18.147 2.322 17.657 2.467 17.225 1.573 17.225 .916 17.448 .498 17.896 .079 18.343-.129 18.941-.129 19.691-.129 20.933 .353 22.209 1.32 23.522 2.287 24.834 3.463 25.917 4.848 26.769 6.231 27.618 7.459 28.045 8.525 28.045 9.247 28.045 9.761 27.851 10.063 27.461 10.366 27.071 10.518 26.573 10.518 25.968 10.518 25.477 10.4 24.855 10.172 24.106L6.796 13.113C7.833 13.171 8.671 13.2 9.306 13.2 11.556 13.2 14.008 13.07 16.663 12.812 17.558 15.781 18.416 18.494 19.238 20.947 20.06 23.398 20.658 25.016 21.034 25.794 21.727 27.294 22.52 28.045 23.415 28.045 22.837 26.516 22.138 24.337 21.314 21.51 20.493 18.683 19.678 15.725 18.87 12.638 19.158 12.638 19.62 12.607 20.256 12.551 21.12 12.492 21.741 12.465 22.115 12.465 21.539 11.858 20.976 11.476 20.429 11.316 19.88 11.158 19.229 11.079 18.479 11.079 17.875 8.599 17.427 6.622 17.139 5.15 16.187 .62 15.711-2.871 15.711-5.322 15.711-5.843 15.738-6.361 15.797-6.882 14.701-6.766 13.929-6.455 13.48-5.95 13.034-5.445 12.812-4.631 12.812-3.506 12.812-1.832 13.157 .347 13.85 3.029 14.311 4.935 15.075 7.603 16.144 11.036 13.835 11.036 11.881 11.015 10.277 10.972 8.678 10.928 7.271 10.849 6.06 10.732 3.578 2.915 2.034-2.034 1.429-4.111 1.14-5.034 .707-5.728 .13-6.188-.447-6.65-1.01-6.882-1.558-6.882-1.183-4.775-.664-2.481 0 0" fill="#666666"></path>
<path transform="matrix(1,0,0,-1,985.4121,583.1572)" d="M0 0C1.326 .779 2.459 1.694 3.396 2.749 4.334 3.802 4.803 4.904 4.803 6.06 4.803 6.405 4.737 6.657 4.607 6.816 4.479 6.976 4.241 7.055 3.895 7.055 3 7.055 2.024 6.606 .973 5.713-.08 4.817-1.047 3.679-1.927 2.294-2.808 .909-3.436-.461-3.811-1.818-2.599-1.386-1.328-.779 0 0M-5.604-7.683C-6.516-6.745-6.97-5.539-6.97-4.068-6.97-2.366-6.406-.534-5.281 1.428-4.156 3.39-2.734 5.042-1.019 6.384 .698 7.726 2.38 8.396 4.023 8.396 5.812 8.396 6.708 7.516 6.708 5.756 6.708 4.343 6.174 3.022 5.104 1.796 4.039 .568 2.668-.433 .995-1.212-.68-1.99-2.354-2.467-4.025-2.641-4.143-3.131-4.198-3.65-4.198-4.197-4.198-5.236-3.939-6.104-3.42-6.794-2.9-7.487-2.021-7.833-.78-7.833 .979-7.833 2.754-7.099 4.544-5.625 6.332-4.155 7.789-2.337 8.915-.174L9.435-.562C8.278-3.131 6.679-5.193 4.63-6.751 2.581-8.31 .476-9.089-1.688-9.089-3.393-9.089-4.696-8.618-5.604-7.683" fill="#666666"></path>
<path transform="matrix(1,0,0,-1,993.2227,591.44436)" d="M0 0C-.591 .62-.889 1.507-.889 2.662-.889 4.363-.274 6.268 .952 8.375 2.179 10.479 3.729 12.269 5.604 13.74 7.479 15.212 9.313 15.947 11.101 15.947 12.226 15.947 13.164 15.645 13.914 15.039 14.664 14.433 15.04 13.653 15.04 12.701 15.04 12.038 14.852 11.562 14.477 11.272 14.102 10.984 13.582 10.84 12.919 10.84 13.063 11.359 13.135 11.864 13.135 12.355 13.135 13.076 12.962 13.66 12.616 14.107 12.27 14.556 11.734 14.779 11.015 14.779 9.744 14.779 8.411 14.071 7.012 12.658 5.61 11.245 4.441 9.557 3.506 7.595 2.566 5.632 2.1 3.944 2.1 2.53 2.1 1.405 2.487 .844 3.268 .844 4.422 .844 5.777 1.759 7.336 3.592 8.894 5.423 10.565 7.652 12.355 10.277 12.729 10.22 13.113 10.098 13.503 9.91 13.893 9.723 14.087 9.483 14.087 9.196 14.087 8.965 13.95 8.597 13.676 8.092 13.4 7.587 13.234 7.292 13.179 7.206 12.688 6.368 12.298 5.626 12.01 4.977 11.721 4.326 11.577 3.729 11.577 3.181 11.577 2.688 11.699 2.25 11.944 1.86 12.188 1.471 12.558 1.275 13.049 1.275 13.886 1.275 14.938 1.875 16.208 3.072 17.478 4.269 18.731 5.949 19.973 8.113L20.405 7.681C19.8 6.151 19.021 4.788 18.068 3.592 17.116 2.394 16.092 1.463 14.996 .8 13.897 .137 12.847-.195 11.837-.195 10.827-.195 10.055 .101 9.521 .691 8.986 1.282 8.721 1.998 8.721 2.834 8.721 3.209 8.764 3.627 8.85 4.09 7.552 2.357 6.391 1.089 5.367 .28 4.343-.527 3.324-.932 2.314-.932 1.362-.932 .591-.621 0 0" fill="#666666"></path>
<path transform="matrix(1,0,0,-1,1020.877,575.08596)" d="M0 0C1.515 2.409 2.748 4.718 3.7 6.924 4.651 9.132 5.129 10.726 5.129 11.707 5.129 12.168 5.026 12.4 4.826 12.4 4.421 12.4 3.593 11.411 2.337 9.435 1.082 7.458-.209 5.042-1.536 2.186-2.863-.67-3.902-3.396-4.652-5.994-3.065-4.408-1.516-2.409 0 0M-7.574-15.342C-8.138-14.535-8.417-13.453-8.417-12.096-8.417-9.499-7.523-5.972-5.734-1.515-3.945 2.943-1.947 6.961 .26 10.539 2.467 14.116 4.061 15.905 5.043 15.905 5.444 15.905 5.785 15.551 6.06 14.845 6.333 14.137 6.471 13.423 6.471 12.703 6.471 11.375 5.93 9.419 4.848 6.838 3.766 4.255 2.345 1.637 .584-1.017-1.177-3.672-3.051-5.821-5.041-7.465-5.417-9.139-5.604-10.596-5.604-11.837-5.604-14.059-4.972-15.169-3.7-15.169-2.633-15.169-1.544-14.492-.434-13.135 .678-11.779 1.667-10.148 2.53-8.245L3.182-8.59C.699-13.9-2.014-16.554-4.955-16.554-6.14-16.554-7.012-16.15-7.574-15.342" fill="#666666"></path>
<path transform="matrix(1,0,0,-1,1044.248,571.4717)" d="M0 0C1.14 1.615 2.063 3.195 2.77 4.738 3.477 6.282 3.83 7.428 3.83 8.18 3.83 8.41 3.771 8.525 3.657 8.525 3.339 8.525 2.727 7.941 1.816 6.772 .908 5.604-.051 4.068-1.062 2.164-2.07 .259-2.907-1.775-3.57-3.938-2.331-2.93-1.141-1.617 0 0M-12.399-17.291C-10.957-15.978-9.673-14.168-8.548-11.859-8.145-9.896-7.64-8.021-7.033-6.231-8.736-6.636-10.51-6.838-12.356-6.838-13.568-6.838-15.056-6.68-16.814-6.363-18.401-9.998-19.194-13.143-19.194-15.797-19.194-17.038-19.007-17.925-18.632-18.459-18.257-18.993-17.638-19.259-16.771-19.259-15.3-19.259-13.843-18.604-12.399-17.291M-21.877-16.577C-21.877-15.364-21.618-13.757-21.1-11.75-20.579-9.746-19.931-7.689-19.151-5.583-19.382-5.555-19.656-5.461-19.975-5.302-20.291-5.144-20.535-5.035-20.709-4.977V-4.198C-20.508-4.228-20.22-4.299-19.843-4.415-19.47-4.53-19.123-4.603-18.806-4.631-17.535-1.371-16.216 1.377-14.846 3.613-13.476 5.849-12.356 6.967-11.49 6.967-11.262 6.967-11.051 6.881-10.862 6.708-10.676 6.535-10.582 6.303-10.582 6.016-10.582 5.64-10.764 5.091-11.123 4.371-11.484 3.649-12.098 2.538-12.962 1.039-13.107 .75-13.555-.051-14.305-1.364-15.056-2.676-15.732-3.997-16.338-5.324-14.752-5.612-13.353-5.757-12.141-5.757-10.641-5.757-8.778-5.526-6.559-5.062-5.548-2.294-4.379 .411-3.051 3.051-1.726 5.691-.44 7.848 .801 9.521 2.041 11.193 3.064 12.031 3.873 12.031 4.335 12.031 4.687 11.75 4.935 11.188 5.179 10.625 5.302 9.998 5.302 9.304 5.302 7.948 4.86 6.282 3.98 4.306 3.101 2.33 1.933 .425 .476-1.407-.981-3.24-2.52-4.646-4.133-5.626-4.652-6.868-5.138-8.563-5.583-10.712-6.03-12.861-6.254-14.528-6.254-15.71-6.254-16.173-6.227-16.663-6.167-17.183-5.015-13.836-3.708-11.13-2.251-9.067-.794-7.005 .828-5.973 2.618-5.973 3.714-5.973 4.536-6.354 5.085-7.12 5.633-7.884 5.907-8.801 5.907-9.868 5.907-10.502 5.827-11.108 5.669-11.686 5.511-12.263 5.258-13.013 4.912-13.936 4.623-14.715 4.407-15.336 4.263-15.797 4.118-16.259 4.046-16.706 4.046-17.139 4.046-17.687 4.162-18.099 4.393-18.373 4.623-18.646 4.939-18.784 5.346-18.784 6.325-18.784 7.479-18.099 8.808-16.728 10.134-15.358 11.23-13.735 12.096-11.859L12.659-12.378C11.707-14.571 10.486-16.375 9.002-17.789 7.516-19.201 5.965-19.909 4.349-19.909 3.396-19.909 2.662-19.656 2.143-19.151 1.623-18.646 1.362-17.99 1.362-17.183 1.362-16.547 1.579-15.522 2.012-14.109 2.474-12.551 2.704-11.397 2.704-10.646 2.704-9.926 2.554-9.398 2.25-9.067 1.946-8.736 1.551-8.569 1.061-8.569-.008-8.569-.938-9.197-1.731-10.453-2.525-11.707-3.383-13.475-4.308-15.754-4.999-17.427-5.548-18.639-5.951-19.389-6.355-20.139-6.802-20.515-7.292-20.515-7.812-20.515-8.238-20.067-8.569-19.173-8.901-18.279-9.067-17.225-9.067-16.014-9.067-15.466-9.023-14.874-8.938-14.239-10.063-16.229-11.435-17.831-13.049-19.043-14.665-20.254-16.323-20.86-18.025-20.86-20.595-20.86-21.877-19.432-21.877-16.577" fill="#666666"></path>
<path transform="matrix(1,0,0,-1,1056.6475,591.3369)" d="M0 0C-.896 .952-1.342 2.323-1.342 4.111-1.342 5.987-.866 7.819 .086 9.607 1.038 11.397 2.257 12.846 3.743 13.958 5.229 15.067 6.692 15.623 8.136 15.623 9.231 15.623 10.019 15.313 10.495 14.693 10.971 14.072 11.209 13.315 11.209 12.421 11.209 11.555 11.014 10.813 10.625 10.192 10.234 9.571 9.708 9.262 9.045 9.262 8.555 9.262 8.136 9.479 7.789 9.91 8.223 10.112 8.597 10.567 8.914 11.274 9.231 11.981 9.392 12.666 9.392 13.33 9.392 13.705 9.317 13.979 9.175 14.152 9.029 14.325 8.785 14.412 8.438 14.412 7.458 14.412 6.412 13.828 5.301 12.66 4.189 11.49 3.253 10.069 2.487 8.396 1.724 6.723 1.342 5.193 1.342 3.809 1.342 2.771 1.586 1.911 2.077 1.234 2.566 .556 3.375 .217 4.501 .217 6.26 .217 7.998 .938 9.716 2.38 11.432 3.823 12.752 5.713 13.676 8.05L14.237 7.617C13.574 5.886 12.665 4.335 11.512 2.965 10.356 1.594 9.081 .521 7.682-.26 6.282-1.039 4.89-1.428 3.506-1.428 2.062-1.428 .894-.952 0 0" fill="#666666"></path>
<path transform="matrix(1,0,0,-1,1069.2627,591.44436)" d="M0 0C-.59 .62-.888 1.507-.888 2.662-.888 4.363-.273 6.268 .952 8.375 2.179 10.479 3.729 12.269 5.604 13.74 7.479 15.212 9.313 15.947 11.101 15.947 12.227 15.947 13.164 15.645 13.915 15.039 14.664 14.433 15.04 13.653 15.04 12.701 15.04 12.038 14.852 11.562 14.477 11.272 14.102 10.984 13.583 10.84 12.92 10.84 13.063 11.359 13.135 11.864 13.135 12.355 13.135 13.076 12.962 13.66 12.616 14.107 12.27 14.556 11.735 14.779 11.015 14.779 9.744 14.779 8.411 14.071 7.012 12.658 5.611 11.245 4.441 9.557 3.506 7.595 2.567 5.632 2.1 3.944 2.1 2.53 2.1 1.405 2.488 .844 3.268 .844 4.422 .844 5.777 1.759 7.336 3.592 8.894 5.423 10.565 7.652 12.355 10.277 12.73 10.22 13.113 10.098 13.504 9.91 13.893 9.723 14.088 9.483 14.088 9.196 14.088 8.965 13.95 8.597 13.677 8.092 13.4 7.587 13.235 7.292 13.179 7.206 12.688 6.368 12.298 5.626 12.01 4.977 11.722 4.326 11.578 3.729 11.578 3.181 11.578 2.688 11.699 2.25 11.944 1.86 12.188 1.471 12.559 1.275 13.049 1.275 13.886 1.275 14.938 1.875 16.208 3.072 17.478 4.269 18.731 5.949 19.974 8.113L20.405 7.681C19.801 6.151 19.021 4.788 18.068 3.592 17.117 2.394 16.093 1.463 14.996 .8 13.898 .137 12.847-.195 11.837-.195 10.827-.195 10.055 .101 9.521 .691 8.986 1.282 8.722 1.998 8.722 2.834 8.722 3.209 8.764 3.627 8.851 4.09 7.552 2.357 6.391 1.089 5.367 .28 4.343-.527 3.325-.932 2.315-.932 1.362-.932 .591-.621 0 0" fill="#666666"></path>
<path transform="matrix(1,0,0,-1,1093.541,590.6885)" d="M0 0C-.562 .521-.843 1.197-.843 2.034-.843 3.015-.426 4.43 .411 6.276 .786 7.229 1.066 7.985 1.256 8.549 1.442 9.111 1.537 9.637 1.537 10.128 1.537 10.848 1.37 11.418 1.039 11.837 .707 12.256 .34 12.602-.064 12.876-.47 13.15-.743 13.331-.888 13.417-1.521 11.801-2.2 10.222-2.921 8.678-3.643 7.134-4.248 5.944-4.738 5.107L-5.128 5.843C-3.743 8.527-2.574 11.269-1.623 14.066-1.911 14.354-2.057 14.701-2.057 15.105-2.057 15.624-1.947 16.115-1.73 16.577-1.516 17.038-1.254 17.399-.951 17.658-.648 17.918-.411 18.048-.237 18.048 .166 18.048 .369 17.702 .369 17.009 .369 16.894 .296 16.634 .151 16.23 .008 15.826-.079 15.552-.108 15.408-.108 15.119 .015 14.853 .261 14.607 .505 14.361 .9 14.051 1.45 13.677 2.345 13.042 3.044 12.414 3.549 11.794 4.054 11.173 4.307 10.373 4.307 9.392 4.307 8.757 4.206 8.129 4.004 7.51 3.802 6.888 3.499 6.074 3.095 5.064 2.46 3.679 2.143 2.684 2.143 2.078 2.143 1.213 2.576 .78 3.439 .78 4.307 .78 5.236 1.125 6.231 1.819 7.228 2.511 8.144 3.369 8.979 4.394 9.816 5.417 10.424 6.363 10.799 7.229L11.36 6.796C10.467 4.804 9.168 3.044 7.466 1.516 5.763-.013 4.048-.778 2.315-.778 1.335-.778 .562-.519 0 0" fill="#666666"></path>
<path transform="matrix(1,0,0,-1,1109.793,583.1572)" d="M0 0C1.326 .779 2.459 1.694 3.396 2.749 4.335 3.802 4.803 4.904 4.803 6.06 4.803 6.405 4.737 6.657 4.607 6.816 4.479 6.976 4.241 7.055 3.895 7.055 3 7.055 2.024 6.606 .974 5.713-.08 4.817-1.046 3.679-1.927 2.294-2.808 .909-3.435-.461-3.81-1.818-2.598-1.386-1.328-.779 0 0M-5.604-7.683C-6.516-6.745-6.968-5.539-6.968-4.068-6.968-2.366-6.406-.534-5.281 1.428-4.155 3.39-2.734 5.042-1.018 6.384 .698 7.726 2.38 8.396 4.023 8.396 5.812 8.396 6.708 7.516 6.708 5.756 6.708 4.343 6.174 3.022 5.105 1.796 4.039 .568 2.668-.433 .995-1.212-.68-1.99-2.354-2.467-4.025-2.641-4.142-3.131-4.198-3.65-4.198-4.197-4.198-5.236-3.938-6.104-3.42-6.794-2.9-7.487-2.021-7.833-.779-7.833 .979-7.833 2.755-7.099 4.544-5.625 6.332-4.155 7.79-2.337 8.915-.174L9.435-.562C8.279-3.131 6.679-5.193 4.631-6.751 2.582-8.31 .476-9.089-1.688-9.089-3.393-9.089-4.695-8.618-5.604-7.683" fill="#666666"></path>
<path transform="matrix(1,0,0,-1,1143.5488,591.0771)" d="M0 0C-1.098 .952-2.057 1.681-2.878 2.186-3.7 2.689-4.544 2.942-5.41 2.942-6.017 2.942-6.436 2.826-6.664 2.597-6.896 2.365-7.012 2.091-7.012 1.774-7.012 1.196-6.729 .605-6.167 0-5.604-.606-4.674-.909-3.376-.909-2.251-.909-1.125-.606 0 0M4.545-3.506C3.506-2.899 2.308-2.021 .952-.865-.549-1.616-1.99-1.99-3.376-1.99-4.588-1.99-5.547-1.76-6.253-1.299-6.961-.837-7.451-.31-7.726 .28-8 .872-8.138 1.386-8.138 1.816-8.138 2.396-7.87 2.913-7.336 3.376-6.802 3.837-6.017 4.067-4.978 4.067-3.91 4.067-2.887 3.844-1.904 3.397-.923 2.949 .347 2.25 1.903 1.298 3.52 2.77 4.939 4.781 6.168 7.336 7.393 9.889 8.331 12.565 8.979 15.363 9.63 18.162 9.954 20.629 9.954 22.765 9.954 25.245 9.484 27.192 8.548 28.606 7.608 30.021 6.174 30.729 4.242 30.729 1.615 30.729-.786 29.479-2.965 26.983-5.145 24.488-6.854 21.379-8.093 17.657-9.333 13.936-9.954 10.372-9.954 6.968-9.954 5.611-9.839 4.399-9.608 3.333-11.83 3.333-12.94 5.338-12.94 9.348-12.94 12.926-12.154 16.468-10.581 19.973-9.01 23.479-6.91 26.342-4.284 28.563-1.659 30.785 1.169 31.896 4.198 31.896 6.938 31.896 9.089 30.958 10.646 29.084 12.204 27.208 12.983 24.64 12.983 21.379 12.983 18.983 12.558 16.445 11.707 13.763 10.854 11.078 9.688 8.562 8.202 6.21 6.716 3.858 5.049 1.976 3.203 .562 4.328-.072 5.401-.562 6.427-.909 7.451-1.255 8.511-1.429 9.607-1.429 10.242-1.429 10.775-1.355 11.209-1.212 11.643-1.067 11.944-.967 12.118-.909 11.426-3.246 10.012-4.414 7.877-4.414 6.692-4.414 5.583-4.111 4.545-3.506" fill="#666666"></path>
<path transform="matrix(1,0,0,-1,1159.9951,590.3633)" d="M0 0C-.605 .85-.908 1.883-.908 3.095-.908 4.162-.687 5.481-.238 7.055 .209 8.626 .742 9.998 1.363 11.167 1.982 12.334 2.495 12.918 2.899 12.918 3.073 12.918 3.325 12.832 3.657 12.659 3.987 12.486 4.271 12.283 4.501 12.053 3.896 11.102 3.261 9.738 2.598 7.963 1.934 6.188 1.602 4.653 1.602 3.354 1.602 2.689 1.709 2.041 1.926 1.406 2.143 .771 2.554 .455 3.159 .455 4.169 .455 5.271 1.385 6.471 3.246 7.667 5.107 8.959 7.466 10.345 10.322L11.036 11.75C12.421 11.49 13.112 11.115 13.112 10.625 13.112 10.567 13.049 10.372 12.919 10.041 12.79 9.709 12.666 9.414 12.551 9.153 11.887 7.682 11.332 6.304 10.885 5.021 10.437 3.736 10.214 2.647 10.214 1.753 10.214 .598 10.688 .021 11.643 .021 12.275 .021 13.026 .303 13.893 .866 14.758 1.428 15.638 2.243 16.533 3.312 17.427 4.378 18.206 5.619 18.87 7.033L19.432 6.645C18.826 5.114 18.04 3.75 17.074 2.553 16.106 1.356 15.061 .418 13.936-.259 12.811-.937 11.743-1.276 10.732-1.276 8.713-1.276 7.703-.209 7.703 1.926 7.703 2.502 7.805 3.225 8.006 4.09 7.083 2.445 6.159 1.14 5.236 .174 4.312-.793 3.347-1.276 2.337-1.276 1.385-1.276 .605-.851 0 0" fill="#666666"></path>
<path transform="matrix(1,0,0,-1,1177.8037,591.44436)" d="M0 0C-.591 .62-.889 1.507-.889 2.662-.889 4.363-.274 6.268 .952 8.375 2.179 10.479 3.729 12.269 5.604 13.74 7.479 15.212 9.313 15.947 11.101 15.947 12.226 15.947 13.164 15.645 13.914 15.039 14.664 14.433 15.04 13.653 15.04 12.701 15.04 12.038 14.852 11.562 14.477 11.272 14.102 10.984 13.582 10.84 12.919 10.84 13.063 11.359 13.135 11.864 13.135 12.355 13.135 13.076 12.962 13.66 12.616 14.107 12.27 14.556 11.734 14.779 11.014 14.779 9.744 14.779 8.41 14.071 7.012 12.658 5.61 11.245 4.441 9.557 3.506 7.595 2.566 5.632 2.1 3.944 2.1 2.53 2.1 1.405 2.487 .844 3.268 .844 4.422 .844 5.777 1.759 7.335 3.592 8.894 5.423 10.565 7.652 12.354 10.277 12.729 10.22 13.113 10.098 13.503 9.91 13.893 9.723 14.087 9.483 14.087 9.196 14.087 8.965 13.949 8.597 13.676 8.092 13.4 7.587 13.234 7.292 13.179 7.206 12.687 6.368 12.298 5.626 12.01 4.977 11.721 4.326 11.577 3.729 11.577 3.181 11.577 2.688 11.699 2.25 11.943 1.86 12.188 1.471 12.558 1.275 13.048 1.275 13.885 1.275 14.938 1.875 16.208 3.072 17.478 4.269 18.73 5.949 19.973 8.113L20.405 7.681C19.8 6.151 19.021 4.788 18.067 3.592 17.116 2.394 16.092 1.463 14.996 .8 13.897 .137 12.847-.195 11.837-.195 10.827-.195 10.055 .101 9.521 .691 8.986 1.282 8.721 1.998 8.721 2.834 8.721 3.209 8.764 3.627 8.85 4.09 7.552 2.357 6.39 1.089 5.367 .28 4.343-.527 3.324-.932 2.314-.932 1.362-.932 .591-.621 0 0" fill="#666666"></path>
<path transform="matrix(1,0,0,-1,1205.458,575.08596)" d="M0 0C1.515 2.409 2.748 4.718 3.7 6.924 4.651 9.132 5.129 10.726 5.129 11.707 5.129 12.168 5.025 12.4 4.826 12.4 4.421 12.4 3.592 11.411 2.337 9.435 1.081 7.458-.209 5.042-1.537 2.186-2.864-.67-3.902-3.396-4.652-5.994-3.065-4.408-1.516-2.409 0 0M-7.574-15.342C-8.138-14.535-8.418-13.453-8.418-12.096-8.418-9.499-7.523-5.972-5.735-1.515-3.945 2.943-1.948 6.961 .26 10.539 2.467 14.116 4.061 15.905 5.042 15.905 5.444 15.905 5.784 15.551 6.06 14.845 6.333 14.137 6.471 13.423 6.471 12.703 6.471 11.375 5.93 9.419 4.848 6.838 3.765 4.255 2.344 1.637 .584-1.017-1.177-3.672-3.051-5.821-5.042-7.465-5.417-9.139-5.604-10.596-5.604-11.837-5.604-14.059-4.972-15.169-3.701-15.169-2.633-15.169-1.544-14.492-.435-13.135 .678-11.779 1.666-10.148 2.53-8.245L3.181-8.59C.699-13.9-2.014-16.554-4.955-16.554-6.14-16.554-7.012-16.15-7.574-15.342" fill="#666666"></path>
<path transform="matrix(1,0,0,-1,1214.1572,571.27737)" d="M0 0C-.332 .245-.497 .599-.497 1.06-.497 1.638-.152 2.157 .541 2.618 1.232 3.08 1.939 3.312 2.662 3.312 3.613 3.312 4.09 2.863 4.09 1.97 4.09 1.421 3.793 .896 3.203 .39 2.61-.115 1.97-.367 1.275-.367 .758-.367 .331-.246 0 0M-6.383-19.172C-6.961-18.495-7.249-17.622-7.249-16.555-7.249-15.429-6.925-13.871-6.275-11.88-5.626-9.889-4.818-8.144-3.853-6.644-2.887-5.143-1.94-4.393-1.018-4.393-.758-4.393-.534-4.479-.348-4.652-.159-4.826-.064-5.057-.064-5.345-.064-5.749-.526-6.715-1.45-8.244-2.401-9.832-3.159-11.253-3.723-12.507-4.284-13.763-4.565-14.953-4.565-16.078-4.565-17.088-4.4-17.773-4.068-18.134-3.737-18.495-3.195-18.675-2.445-18.675-.194-18.675 2.026-16.467 4.22-12.053L4.608-12.486C3.801-14.91 2.61-16.799 1.039-18.155-.534-19.511-2.187-20.188-3.917-20.188-4.984-20.188-5.808-19.85-6.383-19.172" fill="#666666"></path>
<path transform="matrix(1,0,0,-1,1217.3809,588.0479)" d="M0 0C0 1.24 .223 2.776 .671 4.608 1.118 6.44 1.73 8.382 2.51 10.431 1.817 10.546 1.299 10.661 .952 10.776V11.556C1.99 11.439 2.625 11.383 2.855 11.383 4.126 14.671 5.488 17.521 6.946 19.931 8.402 22.339 9.55 23.544 10.388 23.544 10.617 23.544 10.826 23.458 11.015 23.284 11.202 23.111 11.296 22.879 11.296 22.592 11.296 22.216 11.115 21.668 10.755 20.947 10.394 20.226 9.78 19.113 8.915 17.614 8.771 17.325 8.324 16.524 7.573 15.213 6.823 13.899 6.146 12.579 5.539 11.253H7.142C9.536 11.253 11.599 11.339 13.33 11.513V10.732C10.186 10.388 7.646 10.214 5.713 10.214H5.062C3.477 6.578 2.683 3.434 2.683 .779 2.683-.462 2.87-1.349 3.246-1.883 3.621-2.416 4.241-2.684 5.106-2.684 6.578-2.684 8.034-2.027 9.479-.715 10.92 .599 12.205 2.408 13.33 4.718L13.893 4.284C12.825 1.774 11.383-.281 9.563-1.883 7.747-3.483 5.843-4.284 3.852-4.284 1.284-4.284 0-2.855 0 0" fill="#666666"></path>
<path transform="matrix(1,0,0,-1,1232.875,600.2744)" d="M0 0C.577 .535 1.226 1.378 1.948 2.533 2.668 3.688 3.39 5.144 4.11 6.903 2.582 6.096 1.377 5.41 .498 4.848-.383 4.285-1.104 3.644-1.666 2.922-2.229 2.2-2.512 1.394-2.512 .499-2.512 .21-2.41-.079-2.208-.368-2.006-.656-1.718-.801-1.342-.801-1.024-.801-.577-.533 0 0M-3.073-1.58C-3.593-1.175-3.854-.612-3.854 .108-3.854 1.263-3.484 2.279-2.748 3.159-2.014 4.04-1.111 4.804-.044 5.454 1.022 6.104 2.554 6.934 4.544 7.942 5.41 10.164 6.217 12.804 6.968 15.862 5.929 14.159 4.891 12.817 3.852 11.837 2.813 10.856 1.745 10.366 .647 10.366-.274 10.366-1.082 10.669-1.774 11.274-2.467 11.88-2.813 12.746-2.813 13.871-2.813 14.91-2.583 16.179-2.12 17.68-1.659 19.18-1.125 20.493-.521 21.618 .087 22.743 .591 23.306 .995 23.306 1.255 23.306 1.637 23.198 2.143 22.981 2.646 22.765 2.898 22.541 2.898 22.312 2.32 21.473 1.702 20.125 1.038 18.264 .375 16.402 .043 14.924 .043 13.828 .043 12.674 .562 12.097 1.602 12.097 2.38 12.097 3.296 12.63 4.35 13.698 5.4 14.765 6.404 16.079 7.355 17.636 7.501 18.126 7.646 18.791 7.79 19.627 7.904 20.175 8.143 20.68 8.504 21.143 8.863 21.604 9.361 21.834 9.998 21.834 10.257 21.834 10.56 21.792 10.905 21.704 10.905 20.925 10.582 19.325 9.932 16.901 9.283 14.478 8.481 12.039 7.529 9.586 8.973 10.164 10.329 11.064 11.599 12.292 12.867 13.519 13.892 15.068 14.672 16.944L15.232 16.511C14.166 13.136 11.438 10.438 7.054 8.418 5.784 5.301 4.45 2.756 3.051 .779 1.65-1.196 .26-2.185-1.125-2.185-1.905-2.185-2.555-1.982-3.073-1.58" fill="#666666"></path>
</g>
</g>
</svg>